<?xml version="1.0" encoding="utf-8"?>
<!-- Generator: Adobe Illustrator 25.4.1, SVG Export Plug-In . SVG Version: 6.00 Build 0)  -->
<svg version="1.1" id="Capa_1" xmlns="http://www.w3.org/2000/svg" xmlns:xlink="http://www.w3.org/1999/xlink" x="0px" y="0px"
	 viewBox="0 0 120 120" style="enable-background:new 0 0 120 120;" xml:space="preserve">
<style type="text/css">
	.st0{fill:none;stroke:#D5AC8C;stroke-width:5;stroke-miterlimit:10;}
	.st1{fill:#D5AC8C;}
	.st2{fill:#FFFFFF;}
</style>
<path class="st0" d="M349.8-84.9c0-27.8-22.4-50.3-50-50.3s-50,22.5-50,50.3c0,25.1,18.3,45.9,42.2,49.7v-35.2h-12.7v-14.5H292V-96
	c0-12.6,7.5-19.6,18.9-19.6c5.5,0,11.2,1,11.2,1v12.4h-6.3c-6.2,0-8.1,3.9-8.1,7.9v9.4h13.9l-2.2,14.5h-11.8v35.2
	C331.5-39,349.8-59.8,349.8-84.9z"/>
<path class="st1" d="M348.9,6.6c-9.4-9.4-21.8-14.5-35-14.5c-27.3,0-49.6,22.2-49.6,49.6c0,8.7,2.3,17.3,6.6,24.8l-7,25.7l26.3-6.9
	c7.2,4,15.4,6,23.7,6l0,0c27.3,0,50-22.2,50-49.6C363.8,28.4,358.2,16,348.9,6.6z M313.8,82.9c-7.4,0-14.7-2-21-5.7l-1.5-0.9
	l-15.6,4.1l4.2-15.2l-1-1.6c-4.1-6.6-6.3-14.1-6.3-21.9c0-22.7,18.5-41.2,41.2-41.2c11,0,21.3,4.3,29.1,12.1s12.5,18.1,12.5,29.1
	C355.5,64.4,336.5,82.9,313.8,82.9z M336.4,52c-1.2-0.6-7.3-3.6-8.5-4c-1.1-0.4-2-0.6-2.8,0.6c-0.8,1.3-3.2,4-3.9,4.9
	c-0.7,0.8-1.5,0.9-2.7,0.3c-7.3-3.6-12.1-6.5-16.9-14.7c-1.3-2.2,1.3-2,3.6-6.8c0.4-0.8,0.2-1.5-0.1-2.2c-0.3-0.6-2.8-6.7-3.8-9.2
	c-1-2.4-2-2.1-2.8-2.1c-0.7,0-1.5,0-2.4,0s-2.2,0.3-3.3,1.5c-1.1,1.3-4.3,4.2-4.3,10.3s4.4,12,5,12.8s8.7,13.3,21.2,18.7
	c7.9,3.4,10.9,3.7,14.9,3.1c2.4-0.4,7.3-3,8.3-5.9s1-5.4,0.7-5.9C338.5,53,337.6,52.6,336.4,52z"/>
<path class="st2" d="M60,34.4c-14.2,0-25.6,11.4-25.6,25.6S45.8,85.6,60,85.6S85.6,74.2,85.6,60S74.2,34.4,60,34.4z M60,76.7
	c-9.2,0-16.7-7.5-16.7-16.7S50.8,43.3,60,43.3S76.7,50.8,76.7,60S69.2,76.7,60,76.7L60,76.7z M92.7,33.3c0,3.3-2.7,6-6,6s-6-2.7-6-6
	s2.7-6,6-6S92.7,30,92.7,33.3z M109.6,39.4c-0.4-8-2.2-15.1-8.1-21c-5.8-5.8-12.9-7.7-20.9-8.1c-8.3-0.5-33-0.5-41.2,0
	c-8,0.4-15.1,2.2-20.9,8.1s-7.7,12.9-8.1,21c-0.5,8.3-0.5,33,0,41.3c0.4,8,2.2,15.1,8.1,21s12.9,7.7,20.9,8.1c8.3,0.5,33,0.5,41.2,0
	c8-0.4,15.1-2.2,20.9-8.1c5.8-5.8,7.7-12.9,8.1-21C110.1,72.4,110.1,47.6,109.6,39.4L109.6,39.4z M99,89.5c-1.7,4.4-5.1,7.7-9.5,9.5
	c-6.6,2.6-22.2,2-29.5,2s-22.9,0.6-29.5-2c-4.4-1.7-7.7-5.1-9.5-9.5c-2.6-6.6-2-22.2-2-29.5s-0.6-22.9,2-29.5
	c1.7-4.4,5.1-7.7,9.5-9.5c6.6-2.6,22.2-2,29.5-2s22.9-0.6,29.5,2c4.4,1.7,7.7,5.1,9.5,9.5c2.6,6.6,2,22.2,2,29.5S101.6,82.9,99,89.5
	z"/>
</svg>
