<?xml version="1.0" encoding="utf-8"?>
<!-- Generator: Adobe Illustrator 25.4.1, SVG Export Plug-In . SVG Version: 6.00 Build 0)  -->
<svg version="1.1" id="Capa_1" xmlns="http://www.w3.org/2000/svg" xmlns:xlink="http://www.w3.org/1999/xlink" x="0px" y="0px"
	 viewBox="0 0 120 120" style="enable-background:new 0 0 120 120;" xml:space="preserve">
<style type="text/css">
	.st0{fill:none;stroke:#FFFFFF;stroke-width:5;stroke-miterlimit:10;}
	.st1{fill:#FFFFFF;}
</style>
<path class="st0" d="M-125.5-176.7c0-27.8-22.4-50.3-50-50.3s-50,22.5-50,50.3c0,25.1,18.3,45.9,42.2,49.7v-35.2H-196v-14.5h12.7
	v-11.1c0-12.6,7.5-19.6,18.9-19.6c5.5,0,11.2,1,11.2,1v12.4h-6.3c-6.2,0-8.1,3.9-8.1,7.9v9.4h13.9l-2.2,14.5h-11.8v35.2
	C-143.8-130.8-125.5-151.6-125.5-176.7z"/>
<path class="st1" d="M95,24.5C85.6,15.1,73.2,10,60,10c-27.3,0-49.6,22.2-49.6,49.6c0,8.7,2.3,17.3,6.6,24.8L10,110l26.3-6.9
	c7.2,4,15.4,6,23.7,6l0,0c27.3,0,50-22.2,50-49.6C109.9,46.2,104.3,33.9,95,24.5z M59.9,100.8c-7.4,0-14.7-2-21-5.7l-1.5-0.9
	l-15.6,4.1L26,83.1l-1-1.6c-4.1-6.6-6.3-14.1-6.3-21.9c0-22.7,18.5-41.2,41.2-41.2c11,0,21.3,4.3,29.1,12.1s12.5,18.1,12.5,29.1
	C101.6,82.2,82.6,100.8,59.9,100.8z M82.5,69.8c-1.2-0.6-7.3-3.6-8.5-4c-1.1-0.4-2-0.6-2.8,0.6c-0.8,1.3-3.2,4-3.9,4.9
	c-0.7,0.8-1.5,0.9-2.7,0.3c-7.3-3.6-12.1-6.5-16.9-14.7c-1.3-2.2,1.3-2,3.6-6.8c0.4-0.8,0.2-1.5-0.1-2.2c-0.3-0.6-2.8-6.7-3.8-9.2
	c-1-2.4-2-2.1-2.8-2.1c-0.7,0-1.5,0-2.4,0s-2.2,0.3-3.3,1.5c-1.1,1.3-4.3,4.2-4.3,10.3s4.4,12,5,12.8s8.7,13.3,21.2,18.7
	c7.9,3.4,10.9,3.7,14.9,3.1c2.4-0.4,7.3-3,8.3-5.9s1-5.4,0.7-5.9C84.6,70.8,83.7,70.4,82.5,69.8z"/>
<path class="st1" d="M-364.3-48.5c-14.2,0-25.6,11.4-25.6,25.6s11.4,25.6,25.6,25.6c14.2,0,25.6-11.4,25.6-25.6
	S-350.1-48.5-364.3-48.5z M-364.3-6.2c-9.2,0-16.7-7.5-16.7-16.7s7.5-16.7,16.7-16.7c9.2,0,16.7,7.5,16.7,16.7S-355.1-6.2-364.3-6.2
	L-364.3-6.2z M-331.6-49.6c0,3.3-2.7,6-6,6c-3.3,0-6-2.7-6-6s2.7-6,6-6C-334.3-55.6-331.6-52.9-331.6-49.6z M-314.7-43.5
	c-0.4-8-2.2-15.1-8.1-21c-5.8-5.8-12.9-7.7-20.9-8.1c-8.3-0.5-33-0.5-41.2,0c-8,0.4-15.1,2.2-20.9,8.1s-7.7,12.9-8.1,21
	c-0.5,8.3-0.5,33,0,41.3c0.4,8,2.2,15.1,8.1,21s12.9,7.7,20.9,8.1c8.3,0.5,33,0.5,41.2,0c8-0.4,15.1-2.2,20.9-8.1
	c5.8-5.8,7.7-12.9,8.1-21C-314.2-10.5-314.2-35.3-314.7-43.5L-314.7-43.5z M-325.3,6.6c-1.7,4.4-5.1,7.7-9.5,9.5
	c-6.6,2.6-22.2,2-29.5,2c-7.3,0-22.9,0.6-29.5-2c-4.4-1.7-7.7-5.1-9.5-9.5c-2.6-6.6-2-22.2-2-29.5s-0.6-22.9,2-29.5
	c1.7-4.4,5.1-7.7,9.5-9.5c6.6-2.6,22.2-2,29.5-2c7.3,0,22.9-0.6,29.5,2c4.4,1.7,7.7,5.1,9.5,9.5c2.6,6.6,2,22.2,2,29.5
	S-322.7,0-325.3,6.6z"/>
</svg>
