<?xml version="1.0" encoding="utf-8"?>
<!-- Generator: Adobe Illustrator 25.4.1, SVG Export Plug-In . SVG Version: 6.00 Build 0)  -->
<svg version="1.1" id="Capa_1" xmlns="http://www.w3.org/2000/svg" xmlns:xlink="http://www.w3.org/1999/xlink" x="0px" y="0px"
	 viewBox="0 0 500 500" style="enable-background:new 0 0 500 500;" xml:space="preserve">
<style type="text/css">
	.st0{fill:#BCA177;}
	.st1{fill:none;stroke:#BCA177;stroke-width:29.464;stroke-miterlimit:10;}
	.st2{fill:none;stroke:#BCA177;stroke-width:40.1782;stroke-miterlimit:10;}
</style>
<g>
	<g>
		<g>
			<path class="st0" d="M294.6,398.5l26.1-147.4c0.1-0.5,38.3-43.4,38.3-43.4l-80.2-70.2c0,0-37.9,43.1-38.4,43.2L97.6,226.1
				c-8.6,2.7-14.4,9.4-15.9,18.1c-1.9,10.6,2.8,22.4,12.3,30.6l152.7,133.8c9.5,8.3,21.7,11.4,32,8.1
				C287.3,414,293,407.4,294.6,398.5z"/>
			<path class="st0" d="M290,118.8l85.6,75c4.7,4.1,11.6,3.8,15.5-0.7c3.9-4.5,3.3-11.3-1.4-15.4l-85.6-75
				c-4.7-4.1-11.6-3.8-15.5,0.7C284.7,107.8,285.3,114.7,290,118.8L290,118.8z"/>
		</g>
	</g>
	<g>
		<g>
			<circle class="st1" cx="250" cy="250" r="225"/>
			<line class="st2" x1="91" y1="91" x2="173" y2="173"/>
			<line class="st2" x1="331.2" y1="329.3" x2="411" y2="409.1"/>
		</g>
	</g>
</g>
</svg>
