<?xml version="1.0" encoding="utf-8"?>
<!-- Generator: Adobe Illustrator 25.4.1, SVG Export Plug-In . SVG Version: 6.00 Build 0)  -->
<svg version="1.1" id="Capa_1" xmlns="http://www.w3.org/2000/svg" xmlns:xlink="http://www.w3.org/1999/xlink" x="0px" y="0px"
	 viewBox="0 0 500 500" style="enable-background:new 0 0 500 500;" xml:space="preserve">
<style type="text/css">
	.st0{fill:#BCA177;}
	.st1{fill:none;stroke:#BCA177;stroke-width:29.464;stroke-miterlimit:10;}
</style>
<g>
	<g>
		<path class="st0" d="M323.9,102.3c0,0-24.3,23.6-50.6,33.1C78.7,205.8,160.8,343,163.5,343.4c0,0,10.9-19,25.7-29.8
			c93.6-68.8,112.6-147.9,112.6-147.9s-21,95.3-104.2,154.5c-18.4,13.1-30.8,45.3-36.1,77.5c0,0,13-5.3,18.6-6.7
			c2.2-14.3,6.8-27.9,14.5-40.1c116.3,13.9,154.4-79.9,159.4-112.6C365.6,161.1,323.9,102.3,323.9,102.3z"/>
	</g>
	<g>
		<circle class="st1" cx="250" cy="250" r="225"/>
	</g>
</g>
</svg>
