<?xml version="1.0" encoding="utf-8"?>
<!-- Generator: Adobe Illustrator 25.4.1, SVG Export Plug-In . SVG Version: 6.00 Build 0)  -->
<svg version="1.1" id="Capa_1" xmlns="http://www.w3.org/2000/svg" xmlns:xlink="http://www.w3.org/1999/xlink" x="0px" y="0px"
	 viewBox="0 0 500 500" style="enable-background:new 0 0 500 500;" xml:space="preserve">
<style type="text/css">
	.st0{fill:#BCA177;}
	.st1{fill:none;stroke:#BCA177;stroke-width:40.1782;stroke-miterlimit:10;}
	.st2{fill:none;stroke:#BCA177;stroke-width:29.464;stroke-miterlimit:10;}
</style>
<g>
	<g>
		<g>
			<path class="st0" d="M352.4,232.3c0,0-8.1-7.3-18.3-13.5c3.4,0.8,6.9,1.3,10.4,1.3c17.7,0,42.7-22.5,42.7-22.5
				s-24.8-22.3-42.5-22.5c8.7-1.7,18.4-6.3,25.1-13.1c12.5-12.5,14.3-46.1,14.3-46.1s-33.5,1.7-46.1,14.3
				c-6.7,6.7-11.3,16.4-13.1,25.1c-0.2-17.7-22.5-42.4-22.5-42.4s-22.5,24.9-22.5,42.7c0,3.4,0.5,6.9,1.3,10.4
				c-6.3-10.2-13.5-18.3-13.5-18.3s-22.5,24.9-22.5,42.7c0,3.4,0.5,6.9,1.3,10.4c-6.3-10.2-13.5-18.3-13.5-18.3
				s-22.5,24.9-22.5,42.7c0,4.1,0.7,8.3,1.8,12.4c-6.5-10.9-14.5-19.9-14.5-19.9s-22.5,24.9-22.5,42.7c0,5.2,1.1,10.5,2.8,15.5
				c-6.6-12.1-16-22.5-16-22.5s-22.5,24.9-22.5,42.7c0,14.2,8.1,29.8,16.4,35.4l-40.5,40.5c-3.5,3.5-3.5,9.2,0,12.7
				c3.5,3.5,9.2,3.5,12.7,0l40.5-40.5c5.6,8.4,21.2,16.4,35.4,16.4c17.7,0,42.7-22.5,42.7-22.5s-10.4-9.4-22.5-16
				c5,1.8,10.3,2.8,15.5,2.8c17.7,0,42.7-22.5,42.7-22.5s-8.9-8-19.9-14.5c4.1,1.2,8.3,1.8,12.4,1.8c17.7,0,42.7-22.5,42.7-22.5
				s-8.1-7.3-18.3-13.5c3.4,0.8,6.9,1.3,10.4,1.3C327.5,254.8,352.4,232.3,352.4,232.3z M183.9,303.4c0.5-2.5,0.7-5.1,0.7-7.6
				c0-3.5-0.9-7.2-2.2-11c2.7,4.7,6,8.5,9.4,10.7L183.9,303.4z M204.2,315.4c-2.5,0-5,0.3-7.6,0.7l7.8-7.8c2.2,3.3,6,6.6,10.7,9.3
				C211.3,316.3,207.6,315.4,204.2,315.4z M219.5,267.7c0.5-2.5,0.7-5.1,0.7-7.6c0-2.6-0.5-5.3-1.3-8.2c2.4,3.6,5.2,6.6,7.9,8.4
				L219.5,267.7z M239.8,279.7c-2.5,0-5,0.3-7.6,0.7l7.3-7.3c1.8,2.8,4.8,5.5,8.4,7.9C245.2,280.2,242.4,279.7,239.8,279.7z
				 M254.7,232.6c0.5-2.5,0.7-5.1,0.7-7.6c0-2.1-0.3-4.2-0.9-6.5c2.2,3,4.6,5.5,7,7.1L254.7,232.6z M275,244.6c-2.5,0-5,0.3-7.6,0.7
				l6.9-6.9c1.6,2.4,4.1,4.8,7.1,7C279.2,244.9,277.1,244.6,275,244.6z M289.4,197.8c0.5-2.5,0.7-5.1,0.7-7.6c0-2.1-0.3-4.2-0.9-6.5
				c2.2,3,4.6,5.5,7,7.1L289.4,197.8z M309.1,203.7c1.6,2.4,4.1,4.8,7.1,7c-2.2-0.5-4.4-0.9-6.5-0.9c-2.5,0-5,0.3-7.6,0.7
				L309.1,203.7z"/>
		</g>
	</g>
	<g>
		<line class="st1" x1="302.2" y1="302.2" x2="408.4" y2="408.4"/>
		<circle class="st2" cx="250" cy="250" r="225"/>
		<line class="st1" x1="91" y1="91" x2="197.2" y2="197.2"/>
	</g>
</g>
</svg>
